<?xml version="1.0" standalone="no"?><svg xmlns="http://www.w3.org/2000/svg" viewBox="0 0 1440 320"><path fill="#153037" fill-opacity="1" d="M0,224L26.7,218.7C53.3,213,107,203,160,218.7C213.3,235,267,277,320,298.7C373.3,320,427,320,480,298.7C533.3,277,587,235,640,229.3C693.3,224,747,256,800,277.3C853.3,299,907,309,960,309.3C1013.3,309,1067,299,1120,298.7C1173.3,299,1227,309,1280,309.3C1333.3,309,1387,299,1413,293.3L1440,288L1440,0L1413.3,0C1386.7,0,1333,0,1280,0C1226.7,0,1173,0,1120,0C1066.7,0,1013,0,960,0C906.7,0,853,0,800,0C746.7,0,693,0,640,0C586.7,0,533,0,480,0C426.7,0,373,0,320,0C266.7,0,213,0,160,0C106.7,0,53,0,27,0L0,0Z"></path></svg>